<svg xmlns="http://www.w3.org/2000/svg" viewBox="0 0 548.22 131.81"><defs><style>.cls-1{fill:#3c464e;}.cls-2{fill:#fff;}.cls-3{fill:#b9c7d2;}.cls-4{fill:#f89929;}.cls-5{fill:#5d6770;}</style></defs><title>Asset 1</title><g id="Layer_2" data-name="Layer 2"><g id="Layer_1-2" data-name="Layer 1"><path class="cls-1" d="M146.07,83.45V45.19h8.42V75.8h19.08v7.65Z"/><path class="cls-1" d="M183.57,83.45V45.19H192V83.45Z"/><path class="cls-1" d="M221.91,84.11c-11.92,0-20.12-8.36-20.12-19.68v-.11a19.64,19.64,0,0,1,20.06-19.79c6.89,0,11,1.86,15,5.25l-5.3,6.4c-3-2.46-5.58-3.88-10-3.88-6.12,0-11,5.41-11,11.92v.11c0,7,4.81,12.14,11.59,12.14a13.44,13.44,0,0,0,7.93-2.3V68.69h-8.47V61.42h16.62V78A24.84,24.84,0,0,1,221.91,84.11Z"/><path class="cls-1" d="M273.57,83.45V68.09H258V83.45h-8.42V45.19H258V60.33h15.53V45.19H282V83.45Z"/><path class="cls-1" d="M311.79,52.95v30.5h-8.42V52.95H291.72V45.19h31.71v7.76Z"/><path class="cls-1" d="M357.11,83.45V68.09H341.58V83.45h-8.42V45.19h8.42V60.33h15.53V45.19h8.42V83.45Z"/><path class="cls-1" d="M395.22,84.11c-11.81,0-20.28-8.8-20.28-19.68v-.11c0-10.88,8.58-19.79,20.39-19.79s20.28,8.8,20.28,19.68v.11C415.61,75.2,407,84.11,395.22,84.11Zm11.59-19.79c0-6.56-4.81-12-11.59-12s-11.48,5.36-11.48,11.92v.11c0,6.56,4.81,12,11.59,12S406.81,71,406.81,64.43Z"/><path class="cls-1" d="M441,83.75c-10.28,0-16.57-5.74-16.57-17V44.89h8.42V66.54c0,6.23,3.12,9.46,8.25,9.46s8.26-3.12,8.26-9.18V44.89h8.42V66.48C457.78,78.07,451.27,83.75,441,83.75Z"/><path class="cls-1" d="M481.89,84a24.35,24.35,0,0,1-16.24-6.12l5-6c3.44,2.84,7.05,4.65,11.43,4.65,3.44,0,5.52-1.37,5.52-3.61v-.11c0-2.13-1.31-3.22-7.71-4.87-7.71-2-12.68-4.1-12.68-11.7v-.11c0-6.94,5.58-11.53,13.39-11.53a22.16,22.16,0,0,1,14.21,4.87l-4.37,6.34c-3.39-2.35-6.73-3.77-9.95-3.77s-4.92,1.48-4.92,3.33v.11c0,2.51,1.64,3.33,8.25,5,7.76,2,12.14,4.81,12.14,11.48v.11C495.94,79.74,490.15,84,481.89,84Z"/><path class="cls-1" d="M505.19,83.45V45.19h28.86v7.49h-20.5v7.76h18v7.49h-18v8h20.77v7.49Z"/><path class="cls-2" d="M65.9,126.31a60.41,60.41,0,1,1,60.41-60.41A60.48,60.48,0,0,1,65.9,126.31Z"/><path class="cls-3" d="M65.9,0a65.9,65.9,0,1,0,65.9,65.9A66,66,0,0,0,65.9,0Zm0,126.31a60.41,60.41,0,1,1,60.41-60.41A60.48,60.48,0,0,1,65.9,126.31Z"/><path class="cls-4" d="M35.35,54.91H45.74v-14H35.35Zm17.47-5.18V46.17l57.69-10.79a54.06,54.06,0,1,0-85,66.49l.36-5.17H55l1.52,22.45a54,54,0,0,0,63.43-50.84ZM26.29,91.48l.82-11.65H53.84l.79,11.65ZM59,60.72l-6.15,4.9,0,.33.62,9.12H27.44l.66-9.45L22,60.72v-3H31.3V40.13H29.66V37l7-3.73a3.86,3.86,0,0,1,7.67,0L51.39,37v3.17H49.82V57.77H59Z"/><path class="cls-5" d="M542.18,80.37h2.5v.47h-1v2.62h-.54V80.84h-1Z"/><path class="cls-5" d="M545,80.37h.76l.85,2.41h0l.83-2.41h.75v3.08h-.51V81.08h0l-.86,2.38h-.44l-.86-2.38h0v2.38H545Z"/></g></g></svg>